<svg height="511pt" viewBox="1 -11 511.999 511" width="511pt" xmlns="http://www.w3.org/2000/svg"><path d="m403.566406 474.753906-97.765625-169.167968h-99.890625l-97.765625 169.167968c-1.839843 3.179688.425781 7.183594 4.0625 7.183594h287.296875c3.636719 0 5.902344-4.003906 4.0625-7.183594zm0 0" fill="#ffea7e"/><path d="m138.144531 474.753906 97.769531-169.167968h-30.003906l-97.765625 169.167968c-1.839843 3.179688.425781 7.183594 4.0625 7.183594h30c-3.636719 0-5.902343-4.003906-4.0625-7.183594zm0 0" fill="#ffd500"/><path d="m192.167969 481.9375h127.375l-32.902344-89.671875c-.828125-2.25.816406-4.648437 3.191406-4.648437h15.726563c2.402344 0 4.050781-2.457032 3.164062-4.71875l-30.300781-77.3125h-45.132813l-30.300781 77.3125c-.886719 2.261718.757813 4.71875 3.164063 4.71875h15.726562c2.371094 0 4.015625 2.398437 3.191406 4.648437zm0 0" fill="#ffd500"/><path d="m251.878906 387.617188h-15.722656c-2.40625 0-4.054688-2.457032-3.167969-4.71875l30.300781-77.3125h-30l-30.300781 77.3125c-.886719 2.261718.757813 4.71875 3.164063 4.71875h15.726562c2.371094 0 4.015625 2.398437 3.191406 4.648437l-32.902343 89.671875h30l32.902343-89.671875c.828126-2.25-.820312-4.648437-3.191406-4.648437zm0 0" fill="#fbc700"/><path d="m298.453125 282.699219h-85.195313c-6.359374 0-12.699218-.441407-18.984374-1.289063v14.773438c0 6.402344 5.238281 11.636718 11.636718 11.636718h99.890625c6.398438 0 11.636719-5.234374 11.636719-11.636718v-14.773438c-6.285156.847656-12.628906 1.289063-18.984375 1.289063zm0 0" fill="#8896df"/><path d="m305.800781 290.65625h-99.890625c-5.570312 0-10.253906-3.96875-11.378906-9.214844-.085938-.011718-.171875-.019531-.257812-.03125v14.773438c0 6.402344 5.238281 11.636718 11.636718 11.636718h99.890625c6.398438 0 11.636719-5.234374 11.636719-11.636718v-14.773438c-.085938.011719-.171875.019532-.261719.03125-1.121093 5.246094-5.808593 9.214844-11.375 9.214844zm0 0" fill="#6c7fd9"/><path d="m383.90625 163.835938h-256.105469l-106.636719 50.792968h469.378907zm0 0" fill="#4f66d1"/><path d="m127.800781 163.835938-106.636719 50.792968h53.257813l91.332031-50.792968zm0 0" fill="#314dca"/><path d="m255.855469 235.90625h-217.144531l134.972656 43.167969c12.859375 3.730469 26.183594 5.625 39.574218 5.625h85.195313c13.390625 0 26.714844-1.894531 39.574219-5.625l134.96875-43.167969zm0 0" fill="#4f66d1"/><path d="m89.449219 235.90625h-50.738281l134.972656 43.167969c12.859375 3.730469 26.183594 5.625 39.574218 5.625h25.6875c-11.46875 0-22.878906-1.894531-33.894531-5.625zm0 0" fill="#314dca"/><path d="m371.332031 143.558594c-18.519531-45.210938-63.238281-80.097656-115.476562-80.097656s-96.960938 34.882812-115.476563 80.097656zm0 0" fill="#60b8ff"/><path d="m270.855469 64.4375c-4.917969-.636719-9.921875-.976562-15-.976562-52.238281 0-96.957031 34.882812-115.476563 80.097656h30.003906c16.714844-40.816406 54.792969-73.207032 100.472657-79.121094zm0 0" fill="#22a7ff"/><path d="m492.714844 211.628906h-473.722656c-6.402344 0-11.636719 5.234375-11.636719 11.636719v3.003906c0 6.398438 5.234375 11.636719 11.636719 11.636719h473.722656c6.402344 0 11.640625-5.238281 11.640625-11.636719v-3.003906c0-6.398437-5.238281-11.636719-11.640625-11.636719zm0 0" fill="#8896df"/><path d="m492.714844 220.738281c-6.957032 0-466.761719 0-473.722656 0-3.738282 0-7.070313-1.792969-9.203126-4.554687-1.519531 1.964844-2.433593 4.417968-2.433593 7.082031v3.003906c0 6.398438 5.234375 11.636719 11.636719 11.636719h473.722656c6.402344 0 11.640625-5.238281 11.640625-11.636719v-3.003906c0-2.664063-.917969-5.117187-2.4375-7.082031-2.132813 2.761718-5.464844 4.554687-9.203125 4.554687zm0 0" fill="#6c7fd9"/><path d="m385.878906 140.558594c-11.429687 0-248.640625 0-260.046875 0-6.402343 0-11.640625 5.238281-11.640625 11.636718v3.003907c0 6.398437 5.238282 11.636719 11.640625 11.636719h260.046875c6.398438 0 11.636719-5.238282 11.636719-11.636719v-3.003907c0-6.398437-5.238281-11.636718-11.636719-11.636718zm0 0" fill="#b4dbff"/><path d="m385.878906 149.667969c-11.40625 0-248.621094 0-260.046875 0-3.738281 0-7.070312-1.792969-9.203125-4.554688-1.519531 1.964844-2.4375 4.417969-2.4375 7.082031v3c0 6.402344 5.238282 11.640626 11.640625 11.640626h260.046875c6.398438 0 11.636719-5.238282 11.636719-11.640626v-3c0-2.664062-.914063-5.117187-2.433594-7.082031-2.132812 2.761719-5.464843 4.554688-9.203125 4.554688zm0 0" fill="#8bcaff"/><path d="m268.992188 20.847656c0 7.253906-5.882813 13.136719-13.136719 13.136719-7.257813 0-13.136719-5.882813-13.136719-13.136719 0-7.257812 5.878906-13.140625 13.136719-13.140625 7.253906 0 13.136719 5.882813 13.136719 13.140625zm0 0" fill="#60b8ff"/><path d="m259.71875 20.847656c0-4.015625 1.800781-7.597656 4.636719-10.007812-2.292969-1.949219-5.257813-3.132813-8.5-3.132813-7.257813 0-13.136719 5.882813-13.136719 13.140625 0 7.253906 5.878906 13.136719 13.136719 13.136719 3.242187 0 6.207031-1.183594 8.5-3.132813-2.835938-2.40625-4.636719-5.992187-4.636719-10.003906zm0 0" fill="#22a7ff"/><path d="m492.863281 204.417969h-.664062l-90.484375-38.007813c2.167968-3.101562 3.445312-6.863281 3.445312-10.921875v-3c0-10.554687-8.585937-19.140625-19.136718-19.140625h-9.625c-19.9375-43.773437-62.96875-74.09375-112.898438-76.867187v-16.136719c7.675781-3.007812 13.136719-10.472656 13.136719-19.207031 0-11.378907-9.257813-20.636719-20.636719-20.636719-11.382812 0-20.640625 9.257812-20.640625 20.636719 0 8.734375 5.460937 16.199219 13.140625 19.207031v16.140625c-49.878906 2.769531-92.941406 33.042969-112.898438 76.867187h-9.625c-10.554687 0-19.140624 8.582032-19.140624 19.136719v3c0 4.0625 1.28125 7.824219 3.445312 10.921875l-90.484375 38.011719h-.660156c-10.550781-.003906-19.136719 8.582031-19.136719 19.136719v3c0 10.550781 8.585938 19.136718 19.136719 19.136718h18.65625l133.945312 38.871094c5 1.453125 10.066407 2.636719 15.179688 3.554688v8.355468c0 6.445313 3.214843 12.148438 8.117187 15.617188l-93.21875 159.253906c-4.753906 8.117188 1.117188 18.378906 10.535156 18.378906h126.160157c4.144531 0 7.5-3.359374 7.5-7.5 0-4.144531-3.355469-7.5-7.5-7.5h-35.410157l29.144532-78.421874c2.644531-7.117188-2.632813-14.703126-10.222656-14.703126h-9.695313l26.199219-65.988281h34.945312l26.195313 65.988281h-9.691407c-7.59375 0-12.867187 7.589844-10.222656 14.703126l29.140625 78.421874h-35.382812c-4.144531 0-7.5 3.355469-7.5 7.5 0 4.140626 3.355469 7.5 7.5 7.5h126.132812c9.40625 0 15.300781-10.25 10.539063-18.378906l-38.464844-65.710937c-2.09375-3.574219-6.683594-4.773438-10.261719-2.683594-3.574219 2.089844-4.777343 6.6875-2.683593 10.261719l36.003906 61.511718h-69.878906l-29.03125-78.125h9.832031c7.695312 0 12.976562-7.773437 10.136719-14.925781l-26.226563-66.0625h12.03125l39.394531 67.296875c2.09375 3.578125 6.6875 4.777344 10.261719 2.683594 3.574219-2.089844 4.777344-6.6875 2.683594-10.261719l-37.015625-63.238281c4.898437-3.46875 8.117187-9.171875 8.117187-15.617188v-8.355468c5.109375-.917969 10.175781-2.105469 15.179688-3.554688l133.945312-38.871094h18.652344c10.554687 0 19.140625-8.585937 19.140625-19.136718v-3.003906c0-10.550782-8.585938-19.136719-19.136719-19.136719zm-236.863281-188.917969c3.109375 0 5.636719 2.527344 5.636719 5.636719s-2.527344 5.636719-5.636719 5.636719-5.636719-2.527344-5.636719-5.636719 2.527344-5.636719 5.636719-5.636719zm0 55.75c44.042969 0 83.601562 24.03125 103.703125 62.101562h-207.40625c20.101563-38.070312 59.660156-62.101562 103.703125-62.101562zm-134.160156 81.238281c0-2.242187 1.894531-4.136719 4.136718-4.136719h260.046876c2.242187 0 4.136718 1.894532 4.136718 4.136719v3c0 2.242188-1.894531 4.136719-4.136718 4.136719-6.570313 0-250.257813 0-260.046876 0-2.242187 0-4.136718-1.894531-4.136718-4.136719zm7.617187 22.136719h253.082031l70.925782 29.796875h-394.933594zm66.703125 207.050781c-2.839844 7.152344 2.441406 14.925781 10.136719 14.925781h9.835937l-29.035156 78.125h-69.878906l93.136719-159.113281h12.03125zm113.921875-91.636719v6.4375c0 2.242188-1.894531 4.136719-4.136719 4.136719-9.402343 0-88.648437 0-99.890624 0-2.242188 0-4.136719-1.894531-4.136719-4.136719v-6.4375c3.339843.257813 7.574219.453126 11.484375.453126h85.195312c3.996094 0 8.621094-.226563 11.484375-.453126zm26-19.878906c-12.496093 3.628906-25.378906 5.332032-37.484375 5.332032h-85.195312c-12.425782 0-25.289063-1.792969-37.484375-5.332032l-84.300781-24.464844h328.769531zm160.917969-43.601562c0 2.242187-1.894531 4.136718-4.136719 4.136718-6.824219 0-466.730469 0-473.726562 0-2.242188 0-4.136719-1.894531-4.136719-4.136718v-3c0-2.242188 1.894531-4.136719 4.136719-4.136719h473.726562c2.242188 0 4.136719 1.894531 4.136719 4.136719zm0 0"/></svg>